<?xml version="1.0" encoding="UTF-8" standalone="no"?>
<!DOCTYPE svg PUBLIC "-//W3C//DTD SVG 1.1//EN"
 "http://www.w3.org/Graphics/SVG/1.1/DTD/svg11.dtd">
<!-- Generated by graphviz version 14.0.2 (0)
 -->
<!-- Pages: 1 -->
<svg width="1371pt" height="73pt"
 viewBox="0.00 0.00 1371.00 73.00" xmlns="http://www.w3.org/2000/svg" xmlns:xlink="http://www.w3.org/1999/xlink">
<g id="graph0" class="graph" transform="scale(1 1) rotate(0) translate(4 69.05)">
<polygon fill="white" stroke="none" points="-4,4 -4,-69.05 1366.74,-69.05 1366.74,4 -4,4"/>
<!-- Ray 1 -->
<g id="node1" class="node">
<title>Ray 1</title>
<polygon fill="lightgray" stroke="black" points="40,-42.9 0,-42.9 0,-22.15 40,-22.15 40,-42.9"/>
<text xml:space="preserve" text-anchor="middle" x="20" y="-30.35" font-family="Times,serif" font-size="9.00">Ray 1</text>
</g>
<!-- Ray 2 -->
<g id="node2" class="node">
<title>Ray 2</title>
<polygon fill="lightgray" stroke="black" points="98,-42.9 58,-42.9 58,-22.15 98,-22.15 98,-42.9"/>
<text xml:space="preserve" text-anchor="middle" x="78" y="-30.35" font-family="Times,serif" font-size="9.00">Ray 2</text>
</g>
<!-- Ray 3 -->
<g id="node3" class="node">
<title>Ray 3</title>
<polygon fill="lightgray" stroke="black" points="156,-42.9 116,-42.9 116,-22.15 156,-22.15 156,-42.9"/>
<text xml:space="preserve" text-anchor="middle" x="136" y="-30.35" font-family="Times,serif" font-size="9.00">Ray 3</text>
</g>
<!-- Ray 4 -->
<g id="node4" class="node">
<title>Ray 4</title>
<polygon fill="lightgray" stroke="black" points="214,-42.9 174,-42.9 174,-22.15 214,-22.15 214,-42.9"/>
<text xml:space="preserve" text-anchor="middle" x="194" y="-30.35" font-family="Times,serif" font-size="9.00">Ray 4</text>
</g>
<!-- Ray 5 -->
<g id="node5" class="node">
<title>Ray 5</title>
<polygon fill="lightgray" stroke="black" points="272,-42.9 232,-42.9 232,-22.15 272,-22.15 272,-42.9"/>
<text xml:space="preserve" text-anchor="middle" x="252" y="-30.35" font-family="Times,serif" font-size="9.00">Ray 5</text>
</g>
<!-- Ray 6 -->
<g id="node6" class="node">
<title>Ray 6</title>
<polygon fill="lightgray" stroke="black" points="330,-42.9 290,-42.9 290,-22.15 330,-22.15 330,-42.9"/>
<text xml:space="preserve" text-anchor="middle" x="310" y="-30.35" font-family="Times,serif" font-size="9.00">Ray 6</text>
</g>
<!-- Ray 7 -->
<g id="node7" class="node">
<title>Ray 7</title>
<polygon fill="lightgray" stroke="black" points="388,-42.9 348,-42.9 348,-22.15 388,-22.15 388,-42.9"/>
<text xml:space="preserve" text-anchor="middle" x="368" y="-30.35" font-family="Times,serif" font-size="9.00">Ray 7</text>
</g>
<!-- Ray 8 -->
<g id="node8" class="node">
<title>Ray 8</title>
<polygon fill="lightgray" stroke="black" points="446,-42.9 406,-42.9 406,-22.15 446,-22.15 446,-42.9"/>
<text xml:space="preserve" text-anchor="middle" x="426" y="-30.35" font-family="Times,serif" font-size="9.00">Ray 8</text>
</g>
<!-- Ray 9 -->
<g id="node9" class="node">
<title>Ray 9</title>
<polygon fill="lightgray" stroke="black" points="504,-42.9 464,-42.9 464,-22.15 504,-22.15 504,-42.9"/>
<text xml:space="preserve" text-anchor="middle" x="484" y="-30.35" font-family="Times,serif" font-size="9.00">Ray 9</text>
</g>
<!-- Speed -->
<g id="node10" class="node">
<title>Speed</title>
<polygon fill="lightgray" stroke="black" points="562.38,-42.9 521.62,-42.9 521.62,-22.15 562.38,-22.15 562.38,-42.9"/>
<text xml:space="preserve" text-anchor="middle" x="542" y="-30.35" font-family="Times,serif" font-size="9.00">Speed</text>
</g>
<!-- UP -->
<g id="node11" class="node">
<title>UP</title>
<ellipse fill="lightblue" stroke="black" cx="600" cy="-32.53" rx="19.8" ry="19.8"/>
<text xml:space="preserve" text-anchor="middle" x="600" y="-30.35" font-family="Times,serif" font-size="9.00">UP</text>
</g>
<!-- DOWN -->
<g id="node12" class="node">
<title>DOWN</title>
<ellipse fill="lightblue" stroke="black" cx="670" cy="-32.53" rx="32.53" ry="32.53"/>
<text xml:space="preserve" text-anchor="middle" x="670" y="-30.35" font-family="Times,serif" font-size="9.00">DOWN</text>
</g>
<!-- LEFT -->
<g id="node13" class="node">
<title>LEFT</title>
<ellipse fill="lightblue" stroke="black" cx="747" cy="-32.53" rx="26.16" ry="26.16"/>
<text xml:space="preserve" text-anchor="middle" x="747" y="-30.35" font-family="Times,serif" font-size="9.00">LEFT</text>
</g>
<!-- RIGHT -->
<g id="node14" class="node">
<title>RIGHT</title>
<ellipse fill="lightblue" stroke="black" cx="823" cy="-32.53" rx="31.47" ry="31.47"/>
<text xml:space="preserve" text-anchor="middle" x="823" y="-30.35" font-family="Times,serif" font-size="9.00">RIGHT</text>
</g>
<!-- 4 -->
<g id="node15" class="node">
<title>4</title>
<ellipse fill="white" stroke="black" cx="887" cy="-32.53" rx="15.03" ry="15.03"/>
<text xml:space="preserve" text-anchor="middle" x="887" y="-30.35" font-family="Times,serif" font-size="9.00">4</text>
</g>
<!-- 5 -->
<g id="node16" class="node">
<title>5</title>
<ellipse fill="white" stroke="black" cx="935" cy="-32.53" rx="15.03" ry="15.03"/>
<text xml:space="preserve" text-anchor="middle" x="935" y="-30.35" font-family="Times,serif" font-size="9.00">5</text>
</g>
<!-- 6 -->
<g id="node17" class="node">
<title>6</title>
<ellipse fill="white" stroke="black" cx="983" cy="-32.53" rx="15.03" ry="15.03"/>
<text xml:space="preserve" text-anchor="middle" x="983" y="-30.35" font-family="Times,serif" font-size="9.00">6</text>
</g>
<!-- 7 -->
<g id="node18" class="node">
<title>7</title>
<ellipse fill="white" stroke="black" cx="1031" cy="-32.53" rx="15.03" ry="15.03"/>
<text xml:space="preserve" text-anchor="middle" x="1031" y="-30.35" font-family="Times,serif" font-size="9.00">7</text>
</g>
<!-- 8 -->
<g id="node19" class="node">
<title>8</title>
<ellipse fill="white" stroke="black" cx="1079" cy="-32.53" rx="15.03" ry="15.03"/>
<text xml:space="preserve" text-anchor="middle" x="1079" y="-30.35" font-family="Times,serif" font-size="9.00">8</text>
</g>
<!-- 9 -->
<g id="node20" class="node">
<title>9</title>
<ellipse fill="white" stroke="black" cx="1127" cy="-32.53" rx="15.03" ry="15.03"/>
<text xml:space="preserve" text-anchor="middle" x="1127" y="-30.35" font-family="Times,serif" font-size="9.00">9</text>
</g>
<!-- 10 -->
<g id="node21" class="node">
<title>10</title>
<ellipse fill="white" stroke="black" cx="1179" cy="-32.53" rx="18.74" ry="18.74"/>
<text xml:space="preserve" text-anchor="middle" x="1179" y="-30.35" font-family="Times,serif" font-size="9.00">10</text>
</g>
<!-- 11 -->
<g id="node22" class="node">
<title>11</title>
<ellipse fill="white" stroke="black" cx="1234" cy="-32.53" rx="18.74" ry="18.74"/>
<text xml:space="preserve" text-anchor="middle" x="1234" y="-30.35" font-family="Times,serif" font-size="9.00">11</text>
</g>
<!-- 12 -->
<g id="node23" class="node">
<title>12</title>
<ellipse fill="white" stroke="black" cx="1289" cy="-32.53" rx="18.74" ry="18.74"/>
<text xml:space="preserve" text-anchor="middle" x="1289" y="-30.35" font-family="Times,serif" font-size="9.00">12</text>
</g>
<!-- 13 -->
<g id="node24" class="node">
<title>13</title>
<ellipse fill="white" stroke="black" cx="1344" cy="-32.53" rx="18.74" ry="18.74"/>
<text xml:space="preserve" text-anchor="middle" x="1344" y="-30.35" font-family="Times,serif" font-size="9.00">13</text>
</g>
</g>
</svg>
