<?xml version="1.0" encoding="UTF-8" standalone="no"?>
<!DOCTYPE svg PUBLIC "-//W3C//DTD SVG 1.1//EN"
 "http://www.w3.org/Graphics/SVG/1.1/DTD/svg11.dtd">
<!-- Generated by graphviz version 14.0.2 (0)
 -->
<!-- Pages: 1 -->
<svg width="1191pt" height="149pt"
 viewBox="0.00 0.00 1191.00 149.00" xmlns="http://www.w3.org/2000/svg" xmlns:xlink="http://www.w3.org/1999/xlink">
<g id="graph0" class="graph" transform="scale(1 1) rotate(0) translate(4 144.65)">
<polygon fill="white" stroke="none" points="-4,4 -4,-144.65 1186.74,-144.65 1186.74,4 -4,4"/>
<!-- Ray 1 -->
<g id="node1" class="node">
<title>Ray 1</title>
<polygon fill="lightgray" stroke="black" points="40,-118.5 0,-118.5 0,-97.75 40,-97.75 40,-118.5"/>
<text xml:space="preserve" text-anchor="middle" x="20" y="-105.95" font-family="Times,serif" font-size="9.00">Ray 1</text>
</g>
<!-- Ray 2 -->
<g id="node2" class="node">
<title>Ray 2</title>
<polygon fill="lightgray" stroke="black" points="98,-118.5 58,-118.5 58,-97.75 98,-97.75 98,-118.5"/>
<text xml:space="preserve" text-anchor="middle" x="78" y="-105.95" font-family="Times,serif" font-size="9.00">Ray 2</text>
</g>
<!-- Ray 3 -->
<g id="node3" class="node">
<title>Ray 3</title>
<polygon fill="lightgray" stroke="black" points="156,-118.5 116,-118.5 116,-97.75 156,-97.75 156,-118.5"/>
<text xml:space="preserve" text-anchor="middle" x="136" y="-105.95" font-family="Times,serif" font-size="9.00">Ray 3</text>
</g>
<!-- Ray 4 -->
<g id="node4" class="node">
<title>Ray 4</title>
<polygon fill="lightgray" stroke="black" points="214,-118.5 174,-118.5 174,-97.75 214,-97.75 214,-118.5"/>
<text xml:space="preserve" text-anchor="middle" x="194" y="-105.95" font-family="Times,serif" font-size="9.00">Ray 4</text>
</g>
<!-- Ray 5 -->
<g id="node5" class="node">
<title>Ray 5</title>
<polygon fill="lightgray" stroke="black" points="272,-118.5 232,-118.5 232,-97.75 272,-97.75 272,-118.5"/>
<text xml:space="preserve" text-anchor="middle" x="252" y="-105.95" font-family="Times,serif" font-size="9.00">Ray 5</text>
</g>
<!-- Ray 6 -->
<g id="node6" class="node">
<title>Ray 6</title>
<polygon fill="lightgray" stroke="black" points="330,-118.5 290,-118.5 290,-97.75 330,-97.75 330,-118.5"/>
<text xml:space="preserve" text-anchor="middle" x="310" y="-105.95" font-family="Times,serif" font-size="9.00">Ray 6</text>
</g>
<!-- UP -->
<g id="node11" class="node">
<title>UP</title>
<ellipse fill="lightblue" stroke="black" cx="310" cy="-19.8" rx="19.8" ry="19.8"/>
<text xml:space="preserve" text-anchor="middle" x="310" y="-17.62" font-family="Times,serif" font-size="9.00">UP</text>
</g>
<!-- Ray 6&#45;&gt;UP -->
<g id="edge1" class="edge">
<title>Ray 6&#45;&gt;UP</title>
<path fill="none" stroke="red" stroke-width="0.24" d="M310,-97.56C310,-86.18 310,-66.65 310,-50.13"/>
<polygon fill="red" stroke="red" stroke-width="0.24" points="313.5,-50.2 310,-40.2 306.5,-50.2 313.5,-50.2"/>
</g>
<!-- Ray 7 -->
<g id="node7" class="node">
<title>Ray 7</title>
<polygon fill="lightgray" stroke="black" points="388,-118.5 348,-118.5 348,-97.75 388,-97.75 388,-118.5"/>
<text xml:space="preserve" text-anchor="middle" x="368" y="-105.95" font-family="Times,serif" font-size="9.00">Ray 7</text>
</g>
<!-- Ray 8 -->
<g id="node8" class="node">
<title>Ray 8</title>
<polygon fill="lightgray" stroke="black" points="446,-118.5 406,-118.5 406,-97.75 446,-97.75 446,-118.5"/>
<text xml:space="preserve" text-anchor="middle" x="426" y="-105.95" font-family="Times,serif" font-size="9.00">Ray 8</text>
</g>
<!-- Ray 9 -->
<g id="node9" class="node">
<title>Ray 9</title>
<polygon fill="lightgray" stroke="black" points="504,-118.5 464,-118.5 464,-97.75 504,-97.75 504,-118.5"/>
<text xml:space="preserve" text-anchor="middle" x="484" y="-105.95" font-family="Times,serif" font-size="9.00">Ray 9</text>
</g>
<!-- Speed -->
<g id="node10" class="node">
<title>Speed</title>
<polygon fill="lightgray" stroke="black" points="562.38,-118.5 521.62,-118.5 521.62,-97.75 562.38,-97.75 562.38,-118.5"/>
<text xml:space="preserve" text-anchor="middle" x="542" y="-105.95" font-family="Times,serif" font-size="9.00">Speed</text>
</g>
<!-- DOWN -->
<g id="node12" class="node">
<title>DOWN</title>
<ellipse fill="lightblue" stroke="black" cx="613" cy="-108.12" rx="32.53" ry="32.53"/>
<text xml:space="preserve" text-anchor="middle" x="613" y="-105.95" font-family="Times,serif" font-size="9.00">DOWN</text>
</g>
<!-- LEFT -->
<g id="node13" class="node">
<title>LEFT</title>
<ellipse fill="lightblue" stroke="black" cx="690" cy="-108.12" rx="26.16" ry="26.16"/>
<text xml:space="preserve" text-anchor="middle" x="690" y="-105.95" font-family="Times,serif" font-size="9.00">LEFT</text>
</g>
<!-- RIGHT -->
<g id="node14" class="node">
<title>RIGHT</title>
<ellipse fill="lightblue" stroke="black" cx="766" cy="-108.12" rx="31.47" ry="31.47"/>
<text xml:space="preserve" text-anchor="middle" x="766" y="-105.95" font-family="Times,serif" font-size="9.00">RIGHT</text>
</g>
<!-- 74 -->
<g id="node15" class="node">
<title>74</title>
<ellipse fill="white" stroke="black" cx="834" cy="-108.12" rx="18.74" ry="18.74"/>
<text xml:space="preserve" text-anchor="middle" x="834" y="-105.95" font-family="Times,serif" font-size="9.00">74</text>
</g>
<!-- 75 -->
<g id="node16" class="node">
<title>75</title>
<ellipse fill="white" stroke="black" cx="889" cy="-108.12" rx="18.74" ry="18.74"/>
<text xml:space="preserve" text-anchor="middle" x="889" y="-105.95" font-family="Times,serif" font-size="9.00">75</text>
</g>
<!-- 77 -->
<g id="node17" class="node">
<title>77</title>
<ellipse fill="white" stroke="black" cx="944" cy="-108.12" rx="18.74" ry="18.74"/>
<text xml:space="preserve" text-anchor="middle" x="944" y="-105.95" font-family="Times,serif" font-size="9.00">77</text>
</g>
<!-- 79 -->
<g id="node18" class="node">
<title>79</title>
<ellipse fill="white" stroke="black" cx="999" cy="-108.12" rx="18.74" ry="18.74"/>
<text xml:space="preserve" text-anchor="middle" x="999" y="-105.95" font-family="Times,serif" font-size="9.00">79</text>
</g>
<!-- 81 -->
<g id="node19" class="node">
<title>81</title>
<ellipse fill="white" stroke="black" cx="1054" cy="-108.12" rx="18.74" ry="18.74"/>
<text xml:space="preserve" text-anchor="middle" x="1054" y="-105.95" font-family="Times,serif" font-size="9.00">81</text>
</g>
<!-- 82 -->
<g id="node20" class="node">
<title>82</title>
<ellipse fill="white" stroke="black" cx="1109" cy="-108.12" rx="18.74" ry="18.74"/>
<text xml:space="preserve" text-anchor="middle" x="1109" y="-105.95" font-family="Times,serif" font-size="9.00">82</text>
</g>
<!-- 83 -->
<g id="node21" class="node">
<title>83</title>
<ellipse fill="white" stroke="black" cx="1164" cy="-108.12" rx="18.74" ry="18.74"/>
<text xml:space="preserve" text-anchor="middle" x="1164" y="-105.95" font-family="Times,serif" font-size="9.00">83</text>
</g>
</g>
</svg>
