<?xml version="1.0" encoding="UTF-8" standalone="no"?>
<!DOCTYPE svg PUBLIC "-//W3C//DTD SVG 1.1//EN"
 "http://www.w3.org/Graphics/SVG/1.1/DTD/svg11.dtd">
<!-- Generated by graphviz version 14.0.2 (0)
 -->
<!-- Pages: 1 -->
<svg width="570pt" height="130pt"
 viewBox="0.00 0.00 570.00 130.00" xmlns="http://www.w3.org/2000/svg" xmlns:xlink="http://www.w3.org/1999/xlink">
<g id="graph0" class="graph" transform="scale(1 1) rotate(0) translate(4 125.8)">
<polygon fill="white" stroke="none" points="-4,4 -4,-125.8 566.38,-125.8 566.38,4 -4,4"/>
<!-- Ray 1 -->
<g id="node1" class="node">
<title>Ray 1</title>
<polygon fill="lightgray" stroke="black" points="330.38,-121.8 290.38,-121.8 290.38,-101.05 330.38,-101.05 330.38,-121.8"/>
<text xml:space="preserve" text-anchor="middle" x="310.38" y="-109.25" font-family="Times,serif" font-size="9.00">Ray 1</text>
</g>
<!-- DOWN -->
<g id="node12" class="node">
<title>DOWN</title>
<ellipse fill="lightblue" stroke="black" cx="168.38" cy="-32.53" rx="32.53" ry="32.53"/>
<text xml:space="preserve" text-anchor="middle" x="168.38" y="-30.35" font-family="Times,serif" font-size="9.00">DOWN</text>
</g>
<!-- Ray 1&#45;&gt;DOWN -->
<g id="edge12" class="edge">
<title>Ray 1&#45;&gt;DOWN</title>
<path fill="none" stroke="red" stroke-width="0.12" d="M290.07,-101.36C270.99,-92.65 241.8,-78.8 217.38,-65.05 212.92,-62.54 208.31,-59.79 203.78,-57"/>
<polygon fill="red" stroke="red" stroke-width="0.12" points="205.72,-54.09 195.4,-51.72 201.99,-60.01 205.72,-54.09"/>
</g>
<!-- RIGHT -->
<g id="node14" class="node">
<title>RIGHT</title>
<ellipse fill="lightblue" stroke="black" cx="368.38" cy="-32.53" rx="31.47" ry="31.47"/>
<text xml:space="preserve" text-anchor="middle" x="368.38" y="-30.35" font-family="Times,serif" font-size="9.00">RIGHT</text>
</g>
<!-- Ray 1&#45;&gt;RIGHT -->
<g id="edge11" class="edge">
<title>Ray 1&#45;&gt;RIGHT</title>
<path fill="none" stroke="green" stroke-width="0.71" d="M317.72,-100.69C324.15,-92.17 333.87,-79.28 343.08,-67.06"/>
<polygon fill="green" stroke="green" stroke-width="0.71" points="345.77,-69.31 349,-59.21 340.19,-65.09 345.77,-69.31"/>
</g>
<!-- Ray 2 -->
<g id="node2" class="node">
<title>Ray 2</title>
<polygon fill="lightgray" stroke="black" points="446.38,-121.8 406.38,-121.8 406.38,-101.05 446.38,-101.05 446.38,-121.8"/>
<text xml:space="preserve" text-anchor="middle" x="426.38" y="-109.25" font-family="Times,serif" font-size="9.00">Ray 2</text>
</g>
<!-- Ray 2&#45;&gt;RIGHT -->
<g id="edge4" class="edge">
<title>Ray 2&#45;&gt;RIGHT</title>
<path fill="none" stroke="green" stroke-width="0.21" d="M419.03,-100.69C412.48,-92 402.5,-78.77 393.13,-66.35"/>
<polygon fill="green" stroke="green" stroke-width="0.21" points="396.1,-64.48 387.29,-58.6 390.52,-68.7 396.1,-64.48"/>
</g>
<!-- Ray 3 -->
<g id="node3" class="node">
<title>Ray 3</title>
<polygon fill="lightgray" stroke="black" points="98.38,-121.8 58.38,-121.8 58.38,-101.05 98.38,-101.05 98.38,-121.8"/>
<text xml:space="preserve" text-anchor="middle" x="78.38" y="-109.25" font-family="Times,serif" font-size="9.00">Ray 3</text>
</g>
<!-- UP -->
<g id="node11" class="node">
<title>UP</title>
<ellipse fill="lightblue" stroke="black" cx="85.38" cy="-32.53" rx="19.8" ry="19.8"/>
<text xml:space="preserve" text-anchor="middle" x="85.38" y="-30.35" font-family="Times,serif" font-size="9.00">UP</text>
</g>
<!-- Ray 3&#45;&gt;UP -->
<g id="edge10" class="edge">
<title>Ray 3&#45;&gt;UP</title>
<path fill="none" stroke="red" stroke-width="0.84" d="M79.26,-100.69C80.11,-91.37 81.43,-76.83 82.63,-63.66"/>
<polygon fill="red" stroke="red" stroke-width="0.84" points="86.1,-64.15 83.52,-53.88 79.13,-63.52 86.1,-64.15"/>
</g>
<!-- Ray 4 -->
<g id="node4" class="node">
<title>Ray 4</title>
<polygon fill="lightgray" stroke="black" points="388.38,-121.8 348.38,-121.8 348.38,-101.05 388.38,-101.05 388.38,-121.8"/>
<text xml:space="preserve" text-anchor="middle" x="368.38" y="-109.25" font-family="Times,serif" font-size="9.00">Ray 4</text>
</g>
<!-- LEFT -->
<g id="node13" class="node">
<title>LEFT</title>
<ellipse fill="lightblue" stroke="black" cx="252.38" cy="-32.53" rx="26.16" ry="26.16"/>
<text xml:space="preserve" text-anchor="middle" x="252.38" y="-30.35" font-family="Times,serif" font-size="9.00">LEFT</text>
</g>
<!-- Ray 4&#45;&gt;LEFT -->
<g id="edge9" class="edge">
<title>Ray 4&#45;&gt;LEFT</title>
<path fill="none" stroke="green" stroke-width="0.69" stroke-dasharray="1,5" d="M353.68,-100.69C336,-88.97 305.84,-68.97 283.02,-53.84"/>
<polygon fill="green" stroke="green" stroke-width="0.69" points="285.19,-51.08 274.92,-48.47 281.32,-56.92 285.19,-51.08"/>
</g>
<!-- Ray 4&#45;&gt;RIGHT -->
<g id="edge3" class="edge">
<title>Ray 4&#45;&gt;RIGHT</title>
<path fill="none" stroke="green" stroke-width="3.89" d="M368.38,-100.69C368.38,-95.19 368.38,-87.88 368.38,-80.11"/>
<polygon fill="green" stroke="green" stroke-width="3.89" points="371.88,-80.32 368.38,-70.32 364.88,-80.32 371.88,-80.32"/>
</g>
<!-- Ray 5 -->
<g id="node5" class="node">
<title>Ray 5</title>
<polygon fill="lightgray" stroke="black" points="504.38,-121.8 464.38,-121.8 464.38,-101.05 504.38,-101.05 504.38,-121.8"/>
<text xml:space="preserve" text-anchor="middle" x="484.38" y="-109.25" font-family="Times,serif" font-size="9.00">Ray 5</text>
</g>
<!-- Ray 6 -->
<g id="node6" class="node">
<title>Ray 6</title>
<polygon fill="lightgray" stroke="black" points="156.38,-121.8 116.38,-121.8 116.38,-101.05 156.38,-101.05 156.38,-121.8"/>
<text xml:space="preserve" text-anchor="middle" x="136.38" y="-109.25" font-family="Times,serif" font-size="9.00">Ray 6</text>
</g>
<!-- Ray 6&#45;&gt;UP -->
<g id="edge8" class="edge">
<title>Ray 6&#45;&gt;UP</title>
<path fill="none" stroke="red" stroke-width="0.11" stroke-dasharray="1,5" d="M129.92,-100.69C122.79,-89.95 111.06,-72.25 101.42,-57.72"/>
<polygon fill="red" stroke="red" stroke-width="0.11" points="104.58,-56.15 96.14,-49.75 98.75,-60.02 104.58,-56.15"/>
</g>
<!-- Ray 6&#45;&gt;DOWN -->
<g id="edge1" class="edge">
<title>Ray 6&#45;&gt;DOWN</title>
<path fill="none" stroke="red" stroke-width="0.67" d="M140.43,-100.69C143.41,-93.52 147.68,-83.26 151.99,-72.91"/>
<polygon fill="red" stroke="red" stroke-width="0.67" points="155.09,-74.57 155.7,-63.99 148.62,-71.88 155.09,-74.57"/>
</g>
<!-- Ray 7 -->
<g id="node7" class="node">
<title>Ray 7</title>
<polygon fill="lightgray" stroke="black" points="562.38,-121.8 522.38,-121.8 522.38,-101.05 562.38,-101.05 562.38,-121.8"/>
<text xml:space="preserve" text-anchor="middle" x="542.38" y="-109.25" font-family="Times,serif" font-size="9.00">Ray 7</text>
</g>
<!-- Ray 8 -->
<g id="node8" class="node">
<title>Ray 8</title>
<polygon fill="lightgray" stroke="black" points="272.38,-121.8 232.38,-121.8 232.38,-101.05 272.38,-101.05 272.38,-121.8"/>
<text xml:space="preserve" text-anchor="middle" x="252.38" y="-109.25" font-family="Times,serif" font-size="9.00">Ray 8</text>
</g>
<!-- Ray 8&#45;&gt;LEFT -->
<g id="edge2" class="edge">
<title>Ray 8&#45;&gt;LEFT</title>
<path fill="none" stroke="green" stroke-width="1.85" d="M252.38,-100.69C252.38,-93.19 252.38,-82.32 252.38,-71.49"/>
<polygon fill="green" stroke="green" stroke-width="1.85" points="255.88,-71.82 252.38,-61.82 248.88,-71.82 255.88,-71.82"/>
</g>
<!-- Ray 9 -->
<g id="node9" class="node">
<title>Ray 9</title>
<polygon fill="lightgray" stroke="black" points="214.38,-121.8 174.38,-121.8 174.38,-101.05 214.38,-101.05 214.38,-121.8"/>
<text xml:space="preserve" text-anchor="middle" x="194.38" y="-109.25" font-family="Times,serif" font-size="9.00">Ray 9</text>
</g>
<!-- Ray 9&#45;&gt;UP -->
<g id="edge7" class="edge">
<title>Ray 9&#45;&gt;UP</title>
<path fill="none" stroke="red" stroke-width="0.35" d="M179.05,-100.62C165.14,-91.62 144.14,-77.79 126.38,-65.05 120.59,-60.91 114.45,-56.3 108.74,-51.93"/>
<polygon fill="red" stroke="red" stroke-width="0.35" points="111.24,-49.43 101.18,-46.08 106.95,-54.97 111.24,-49.43"/>
</g>
<!-- Ray 9&#45;&gt;LEFT -->
<g id="edge5" class="edge">
<title>Ray 9&#45;&gt;LEFT</title>
<path fill="none" stroke="green" stroke-width="0.19" stroke-dasharray="1,5" d="M201.72,-100.69C208.99,-91.05 220.48,-75.82 230.68,-62.29"/>
<polygon fill="green" stroke="green" stroke-width="0.19" points="233.41,-64.48 236.64,-54.39 227.82,-60.27 233.41,-64.48"/>
</g>
<!-- Speed -->
<g id="node10" class="node">
<title>Speed</title>
<polygon fill="lightgray" stroke="black" points="40.75,-121.8 0,-121.8 0,-101.05 40.75,-101.05 40.75,-121.8"/>
<text xml:space="preserve" text-anchor="middle" x="20.38" y="-109.25" font-family="Times,serif" font-size="9.00">Speed</text>
</g>
<!-- Speed&#45;&gt;UP -->
<g id="edge6" class="edge">
<title>Speed&#45;&gt;UP</title>
<path fill="none" stroke="red" stroke-width="0.61" d="M28.61,-100.69C37.97,-89.61 53.59,-71.13 66.07,-56.36"/>
<polygon fill="red" stroke="red" stroke-width="0.61" points="68.61,-58.78 72.39,-48.89 63.27,-54.26 68.61,-58.78"/>
</g>
</g>
</svg>
